# File created by Blade
# Date/Time:  Tue Sep 30 19:12:01 2014
#---------------------------------------------------------
:version 1.10
:name HOM
:units
  mass 1.0
  length 1.000000
  angle deg
:documentation
     Acclaim Skeleton File
:root
   axis xyz
   order TX TY TZ RX RY RZ
   position 0.000000 0.000000 0.000000
   orientation 0 0 0
:bonedata
   begin
      id 1
      name Spine_dum
      direction 0.000000 1.000000 0.000000
      length 7.508948
      axis 0.0 0.0 0.0 xyz
   end
   begin
      id 2
      name LeftUpLeg_dum
      direction 1.000000 0.000000 0.000000
      length 3.000560
      axis 0.0 0.0 0.0 xyz
   end
   begin
      id 3
      name RightUpLeg_dum
      direction -1.000000 0.000000 0.000000
      length 3.000560
      axis 0.0 0.0 0.0 xyz
   end
   begin
      id 4
      name Spine
      direction 0.000000 1.000000 0.000000
      length 0.000000
      axis 0.0 0.0 0.0 xyz
      dof rx ry rz
   end
   begin
      id 5
      name Spine_dum1
      direction 0.000000 1.000000 0.000000
      length 13.861154
      axis 0.0 0.0 0.0 xyz
   end
   begin
      id 6
      name Spine_dum2
      direction 0.000000 1.000000 0.000000
      length 8.204781
      axis 0.0 0.0 0.0 xyz
   end
   begin
      id 7
      name Spine_dum3
      direction 0.000000 1.000000 0.000000
      length 8.204781
      axis 0.0 0.0 0.0 xyz
   end
   begin
      id 8
      name Head
      direction 0.000000 1.000000 0.000000
      length 4.527550
      axis 0.0 0.0 0.0 xyz
      dof rx ry rz
   end
   begin
      id 9
      name LeftShoulder
      direction 1.000000 0.000000 0.000000
      length 6.635956
      axis 0.0 0.0 -90.0 xyz
      dof rx ry rz
   end
   begin
      id 10
      name LeftArm
      direction 1.000000 0.000000 0.000000
      length 10.274218
      axis 0.0 0.0 -90.0 xyz
      dof rx ry rz
   end
   begin
      id 11
      name LeftForeArm
      direction 1.000000 0.000000 0.000000
      length 8.522147
      axis 0.0 0.0 -90.0 xyz
      dof ry rz rx
   end
   begin
      id 12
      name LeftHand
      direction 0.000000 0.000000 0.000000
      length 0.000000
      axis 0.0 0.0 -90.0 xyz
      dof rx ry rz
   end
   begin
      id 13
      name LeftHand_dum1
      direction 0.000000 0.000000 0.000000
      length 0.000000
      axis 0.0 0.0 -90.0 xyz
   end
   begin
      id 14
      name LeftHand_dum2
      direction 1.000000 0.000000 0.000000
      length 3.937000
      axis 0.0 0.0 -90.0 xyz
   end
   begin
      id 15
      name LeftHandThumb1
      direction 0.000000 0.000000 1.000000
      length 3.937000
      axis 0.0 0.0 -90.0 xyz
      dof rx rz ry
   end
   begin
      id 16
      name RightShoulder
      direction -1.000000 0.000000 0.000000
      length 6.635956
      axis 0.0 0.0 90.0 xyz
      dof rx ry rz
   end
   begin
      id 17
      name RightArm
      direction -1.000000 0.000000 0.000000
      length 10.274218
      axis 0.0 0.0 90.0 xyz
      dof rx ry rz
   end
   begin
      id 18
      name RightForeArm
      direction -1.000000 0.000000 0.000000
      length 8.522147
      axis 0.0 0.0 90.0 xyz
      dof ry rz rx
   end
   begin
      id 19
      name RightHand
      direction 0.000000 0.000000 0.000000
      length 0.000000
      axis 0.0 0.0 90.0 xyz
      dof rx ry rz
   end
   begin
      id 20
      name RightHand_dum1
      direction 0.000000 0.000000 0.000000
      length 0.000000
      axis 0.0 0.0 90.0 xyz
   end
   begin
      id 21
      name RightHand_dum2
      direction -1.000000 0.000000 0.000000
      length 3.937000
      axis 0.0 0.0 90.0 xyz
   end
   begin
      id 22
      name RightHandThumb1
      direction 0.000000 0.000000 1.000000
      length 3.937000
      axis 0.0 0.0 90.0 xyz
      dof rx rz ry
   end
   begin
      id 23
      name LeftUpLeg
      direction 0.000000 -1.000000 0.000000
      length 16.490845
      axis 0.0 0.0 0.0 xyz
      dof rx ry rz
   end
   begin
      id 24
      name LeftLeg
      direction 0.000000 -1.000000 0.000000
      length 14.556576
      axis 0.0 0.0 0.0 xyz
      dof rx ry rz
   end
   begin
      id 25
      name LeftFoot
      direction 0.000000 -0.258819 0.965926
      length 4.831116
      axis 15.0 0.0 0.0 xyz
      dof rx ry rz
   end
   begin
      id 26
      name LeftToeBase
      direction 0.000000 0.000000 1.000000
      length 2.952750
      axis 0.0 0.0 0.0 xyz
      dof rx ry rz
   end
   begin
      id 27
      name RightUpLeg
      direction 0.000000 -1.000000 0.000000
      length 16.490845
      axis 0.0 0.0 0.0 xyz
      dof rx ry rz
   end
   begin
      id 28
      name RightLeg
      direction 0.000000 -1.000000 0.000000
      length 14.556576
      axis 0.0 0.0 0.0 xyz
      dof rx ry rz
   end
   begin
      id 29
      name RightFoot
      direction 0.000000 -0.258819 0.965926
      length 4.831116
      axis 15.0 0.0 0.0 xyz
      dof rx ry rz
   end
   begin
      id 30
      name RightToeBase
      direction 0.000000 0.000000 1.000000
      length 2.952750
      axis 0.0 0.0 0.0 xyz
      dof rx ry rz
   end
:hierarchy
   begin
      root Spine_dum LeftUpLeg_dum RightUpLeg_dum
      Spine_dum Spine
      LeftUpLeg_dum LeftUpLeg
      RightUpLeg_dum RightUpLeg
      Spine Spine_dum1 Spine_dum2 Spine_dum3
      Spine_dum1 Head
      Spine_dum2 LeftShoulder
      Spine_dum3 RightShoulder
      LeftShoulder LeftArm
      LeftArm LeftForeArm
      LeftForeArm LeftHand
      LeftHand LeftHand_dum1 LeftHand_dum2
      LeftHand_dum1 LeftHandThumb1
      RightShoulder RightArm
      RightArm RightForeArm
      RightForeArm RightHand
      RightHand RightHand_dum1 RightHand_dum2
      RightHand_dum1 RightHandThumb1
      LeftUpLeg LeftLeg
      LeftLeg LeftFoot
      LeftFoot LeftToeBase
      RightUpLeg RightLeg
      RightLeg RightFoot
      RightFoot RightToeBase
   end

# File created by Blade
# Date/Time:  Thu Sep 25 17:14:50 2014
# Frame Rate: 120.000 fps
#------------------------------------------------------
:FULLY-SPECIFIED
:DEGREES
1
root 0.243853 32.875917 -2.922838 12.975470 2.620099 -1.186611
Spine -11.878054 5.449284 0.573591
Head -12.625262 -5.762242 9.904735
LeftShoulder -12.812696 22.013189 28.232143
LeftArm 22.987143 -22.300632 -32.946850
LeftForeArm 7.359064 -0.000000 13.454286
LeftHand -30.150114 -0.000000 -2.539116
LeftHandThumb1 -26.253704 0.000000 33.147579
RightShoulder -19.706251 12.243861 -40.216418
RightArm -7.821225 9.295872 33.639845
RightForeArm -28.266823 -0.000000 16.865244
RightHand -10.558748 -0.000000 7.678133
RightHandThumb1 -24.326973 -0.000000 -32.862282
LeftUpLeg -8.355536 3.927763 2.235750
LeftLeg 0.527755 -0.000000 -0.000000
LeftFoot -11.869991 8.849306 -18.636181
LeftToeBase 4.036109 -0.000000 -0.000000
RightUpLeg -10.157274 -8.771660 1.327418
RightLeg 3.049993 -0.000000 -0.000000
RightFoot -9.329995 -2.389846 -3.297014
RightToeBase 0.597444 -0.000000 -0.000000
2
root 0.244165 32.875719 -2.920337 12.972321 2.624810 -1.179216
Spine -11.884375 5.434804 0.551866
Head -12.642054 -5.754909 9.924188
LeftShoulder -12.833765 22.040255 28.233014
LeftArm 23.001313 -22.377905 -32.982124
LeftForeArm 7.353679 -0.000000 13.495782
LeftHand -30.207648 -0.000000 -2.635828
LeftHandThumb1 -26.253704 0.000000 33.147579
RightShoulder -19.689931 12.250363 -40.235098
RightArm -7.863008 9.343559 33.661601
RightForeArm -28.320366 -0.000000 16.907269
RightHand -10.568930 -0.000000 7.743211
RightHandThumb1 -24.326973 -0.000000 -32.862282
LeftUpLeg -8.336573 3.891559 2.233594
LeftLeg 0.505462 -0.000000 -0.000000
LeftFoot -11.873465 8.870602 -18.656327
LeftToeBase 4.042174 -0.000000 -0.000000
RightUpLeg -10.150543 -8.768971 1.319970
RightLeg 3.055490 -0.000000 -0.000000
RightFoot -9.347522 -2.397496 -3.278744
RightToeBase 0.625056 -0.000000 -0.000000
3
root 0.243122 32.875826 -2.917242 12.971965 2.632438 -1.185396
Spine -11.903340 5.440348 0.546359
Head -12.629505 -5.767863 9.920918
LeftShoulder -12.810566 22.088392 28.216195
LeftArm 22.989892 -22.418201 -32.957727
LeftForeArm 7.344483 -0.000000 13.500729
LeftHand -30.206275 0.000000 -2.634794
LeftHandThumb1 -26.253704 0.000000 33.147579
RightShoulder -19.682716 12.251348 -40.221875
RightArm -7.859687 9.333106 33.635418
RightForeArm -28.303111 0.000000 16.890398
RightHand -10.562169 -0.000000 7.652990
RightHandThumb1 -24.326973 -0.000000 -32.862282
LeftUpLeg -8.316968 3.849510 2.248754
LeftLeg 0.475028 -0.000000 -0.000000
LeftFoot -11.868143 8.912110 -18.630722
LeftToeBase 4.056761 -0.000000 -0.000000
RightUpLeg -10.138483 -8.763615 1.326860
RightLeg 3.043732 -0.000000 -0.000000
RightFoot -9.346138 -2.415371 -3.291530
RightToeBase 0.637835 -0.000000 -0.000000
4
root 0.243226 32.875398 -2.914686 12.970795 2.644753 -1.185263
Spine -11.912013 5.444210 0.530859
Head -12.647409 -5.778020 9.937478
LeftShoulder -12.813250 22.107062 28.224944
LeftArm 23.008298 -22.427168 -32.970199
LeftForeArm 7.344932 -0.000000 13.506554
LeftHand -30.196006 -0.000000 -2.606245
LeftHandThumb1 -26.253704 0.000000 33.147579
RightShoulder -19.687869 12.234272 -40.241114
RightArm -7.886009 9.371713 33.655938
RightForeArm -28.332850 -0.000000 16.920586
RightHand -10.584118 0.000000 7.710486
RightHandThumb1 -24.326973 -0.000000 -32.862282
LeftUpLeg -8.313453 3.849762 2.250474
LeftLeg 0.476512 -0.000000 -0.000000
LeftFoot -11.861395 8.884166 -18.690766
LeftToeBase 3.977763 -0.000000 -0.000000
RightUpLeg -10.129432 -8.766584 1.327772
RightLeg 3.040271 -0.000000 -0.000000
RightFoot -9.349858 -2.422168 -3.285037
RightToeBase 0.622115 -0.000000 -0.000000
5
root 0.243173 32.875611 -2.912221 12.971948 2.660133 -1.183711
Spine -11.926226 5.436498 0.522201
Head -12.662320 -5.784161 9.931528
LeftShoulder -12.812866 22.118412 28.210602
LeftArm 22.997591 -22.419416 -32.941557
LeftForeArm 7.325327 -0.000000 13.516177
LeftHand -30.208470 -0.000000 -2.577848
LeftHandThumb1 -26.253704 0.000000 33.147579
RightShoulder -19.696891 12.247522 -40.233651
RightArm -7.862428 9.315414 33.635419
RightForeArm -28.313334 -0.000000 16.879502
RightHand -10.538118 -0.000000 7.644228
RightHandThumb1 -24.326973 -0.000000 -32.862282
LeftUpLeg -8.301952 3.795017 2.258033
LeftLeg 0.455987 -0.000000 -0.000000
LeftFoot -11.875370 8.930160 -18.672465
LeftToeBase 4.091650 -0.000000 -0.000000
RightUpLeg -10.126732 -8.772680 1.326983
RightLeg 3.043550 -0.000000 -0.000000
RightFoot -9.351783 -2.428885 -3.273768
RightToeBase 0.635197 -0.000000 -0.000000
